#!OML:ASF F:\VICON\USERDATA\INSTALL\rory3\rory3.ASF
:FULLY-SPECIFIED
:DEGREES
26
root 0.58757247376122 17.81945902278839 -10.87969741502033 -0.0083426037289831 -3.398231153293615 -8.090554857715459
lfemur -25.72043639367343 -5.6918023026883064 -8.462213795542986
ltibia 12.172343200867275
lfoot -12.0163713430868 0.7987056414364386
ltoes -4.427774033533741
rfemur 6.65286757965203 6.375298311980195 35.1637665702234
rtibia 23.39851796022991
rfoot -19.473027671872664 -6.682998469559626
rtoes 0.6327164592169683
lowerback 10.303774266067467 1.9836833270012657 7.115317142228174
upperback -0.5338126214664191 3.3639038112824076 2.21922175296302
thorax -6.073291012761967 1.4819382086621793 -1.9322208228916946
lowerneck -15.864076665700804 -3.206978824044908 -1.2998144305330226
upperneck 21.93533039204842 -4.143806763372503 -0.0478181295364604
head 9.582553566879616 -2.040063637959202 -0.4153274569226531
lclavicle -1.3801363888790163e-15 -1.8377705367233706e-15
lhumerus -36.905786478589135 13.502443287757494 79.74979422280687
lradius 15.025766364992196
lwrist 0.7755630314248956
lhand -26.392266021901854 24.039365095068224
lfingers 7.125019999999999
lthumb 0.5746403423614277 54.17239078151026
rclavicle -1.385011209675018e-15 -1.841451847979221e-15
rhumerus -19.77127143559059 -11.85222302355227 -80.40676907957126
rradius 31.258241242538194
rwrist -2.8006497432038735
rhand -18.308455190101384 23.41362225202996
rfingers 7.125019999999999
rthumb 7.817048288422292 -6.384940038659047
27
root 0.6453684515504885 17.758855206665984 -9.879223113471342 0.022303412651073717 -3.5016950772885815 -7.713851360361263
lfemur -25.505853232903156 -4.413467163809608 -9.994470023695651
ltibia 12.649639923278702
lfoot -11.046415282952418 -0.07248467853281948
ltoes -4.432518701902715
rfemur 8.728719879781325 6.348802692077073 34.42495604730289
rtibia 24.730200791332184
rfoot -19.268038495419 -5.911945615358457
rtoes -1.3623551062257464
lowerback 9.90518934222433 2.1351324989676446 7.021773596187813
upperback -0.41373915950012086 3.4944022090402247 2.139721428025817
thorax -5.842493759003591 1.515982714919455 -1.9047045968680723
lowerneck -15.761425207871122 -3.3045464629407175 -1.2069139754810165
upperneck 21.585935735893017 -4.32932650043725 0.06283155097178993
head 9.50772907030841 -2.104990534158874 -0.4065695937697089
lclavicle -1.3824660900699438e-15 -1.8393148814630926e-15
lhumerus -37.20995069023973 14.141016590082572 79.46170620097057
lradius 13.396516473415819
lwrist -3.2392334126235993
lhand -26.15489194901248 23.67430899455043
lfingers 7.125019999999999
lthumb 0.6194612310600649 53.89240777053111
rclavicle -1.3851944250297619e-15 -1.8416220159700956e-15
rhumerus -19.88985978335655 -12.733874898462226 -80.0032349375355
rradius 31.60060903627585
rwrist -2.754404058764379
rhand -18.431073243921134 23.216261676347838
rfingers 7.125019999999999
rthumb 7.631609661583207 -6.6211661137719915
28
root 0.7213222144532381 17.70512383416045 -8.743201505089816 -0.3112075879064191 -3.5444180163632337 -7.100859473388104
lfemur -25.46735088787147 -3.460062844941138 -11.887657444570689
ltibia 17.38746168227642
lfoot -9.543614418911218 -2.1529143640945207
ltoes -5.297631966984716
rfemur 9.959457539343754 6.208378467830855 33.47021912863978
rtibia 28.037833383977357
rfoot -17.94280404155538 -4.770563551185164
rtoes -3.924902808683626
lowerback 9.655117630905194 2.2578373655080104 6.636876664065073
upperback -0.35140262621529417 3.574291288234313 1.96200146773975
thorax -5.656017327364614 1.5775494873533287 -1.8278509084852816
lowerneck -15.565222745904538 -3.3713370461349483 -1.1120891931824262
upperneck 21.514932551554537 -4.515573772682977 0.11657160701715283
head 9.506835415682936 -2.1607517714557334 -0.40524302193173234
lclavicle -1.3780129466912903e-15 -1.8364700980434215e-15
lhumerus -37.26617073340883 14.164350619672398 79.44151111574806
lradius 12.568036745422912
lwrist -5.311157402298681
lhand -26.120774319453712 23.94527781944997
lfingers 7.125019999999999
lthumb 0.7511609328533155 54.53493192076404
rclavicle -1.385486835812314e-15 -1.841892874220065e-15
rhumerus -20.920650134873036 -14.462584595890407 -79.29560647962214
rradius 31.34235353375685
rwrist -2.0107102683470224
rhand -18.61184169252409 23.094551679631028
rfingers 7.125019999999999
rthumb 7.394180362611479 -6.989119700858078
29
root 0.8123270183751827 17.8032214507897 -7.620956365868393 -0.7770518568272682 -4.086453619978348 -5.932890486849758
lfemur -24.719330214867835 -3.4699126840422645 -13.879692370620143
ltibia 21.657073235729435
lfoot -7.016330696102312 -4.3652130858411065
ltoes -2.9020138476499344
rfemur 9.942089291988905 5.998710452958738 31.369775353809736
rtibia 33.39219901247807
rfoot -14.391645481457688 -3.1586758347083936
rtoes -5.568593407268352
lowerback 9.19419531219386 2.447141664238357 5.774685104061163
upperback -0.18394328523136952 3.6885921354507993 1.6502255232483651
thorax -5.428018570930068 1.6565657885058858 -1.6589867344885485
lowerneck -15.355112558189076 -3.4232945592282364 -1.1293509356059883
upperneck 22.088827852487086 -4.610416946217494 0.19549286948028055
head 9.676642886727157 -2.193163790866248 -0.3959507748546245
lclavicle -1.3820766028143776e-15 -1.8385038444466822e-15
lhumerus -37.18218756734497 13.610900186506932 79.72568650143391
lradius 12.485157384080873
lwrist -6.082098403232058
lhand -25.51720125178394 24.520008197486195
lfingers 7.125019999999999
lthumb 1.135854820292423 54.70708100111631
rclavicle -1.3848441104903866e-15 -1.841296278518503e-15
rhumerus -22.778459700383895 -16.548984979496907 -78.45644314836954
rradius 30.925831653130043
rwrist -1.4076450644053358
rhand -18.530651005548286 23.070459488915596
rfingers 7.125019999999999
rthumb 7.585600704014198 -6.796134349176112
30
root 0.8856914553337129 17.860704888838125 -6.662304955555475 -1.4696956543821813 -3.511663190035854 -3.6654956814789865
lfemur -22.665855841499294 -3.3370634175609153 -17.34562633555797
ltibia 24.352545230447703
lfoot -5.733942242959648 -6.09964607291
ltoes -1.94359025295739
rfemur 7.376086638083185 4.253362199260883 27.751330481865857
rtibia 41.54669665838622
rfoot -7.267145037235078 -1.0887508217174773
rtoes -5.294286755151157
lowerback 8.83364280539399 2.3951785716111496 3.8712584472253093
upperback -0.052345497132057356 3.441507256942088 1.0439848337046
thorax -5.334932768147759 1.5886126315474673 -1.3746481867116016
lowerneck -15.360990355240077 -3.379686358189258 -1.1178660739945356
upperneck 22.661463475432804 -4.590735756101791 0.13781999668547165
head 9.862159750228733 -2.1741595336292683 -0.42151727092033353
lclavicle -1.3791778995038255e-15 -1.8361176000196805e-15
lhumerus -36.791942406418706 13.046270059991699 80.01692178842232
lradius 12.824698076129206
lwrist -4.3744376072661275
lhand -25.58986510490843 23.886817265655903
lfingers 7.125019999999999
lthumb 1.056219760840228 54.24088102777229
rclavicle -1.3844150794900044e-15 -1.840897335146107e-15
rhumerus -24.541769500041784 -18.639481473989793 -77.78911070685115
rradius 30.1197022680634
rwrist -0.40248182039556823
rhand -18.412910077598436 23.07045839368735
rfingers 7.125019999999999
rthumb 7.663055469785899 -7.025289795684017
31
root 0.9711813095043278 17.91495000278247 -6.436178375139447 -2.1474157714067275 -3.359176427965812 -3.3627412746251455
lfemur -20.440419895347716 -2.560143596840589 -18.846809805302776
ltibia 26.71267121628425
lfoot -5.352394890080891 -6.45351055257947
ltoes -0.8201398529512902
rfemur 3.044265982997496 2.804445977490574 26.164586245298572
rtibia 50.85581677584892
rfoot 3.026437068946789 0.24366616069287517
rtoes 1.123054936970723
lowerback 9.074131544405887 2.3525541864085056 3.6460829069850997
upperback -0.11422798722160046 3.438635153261717 0.8211912109082129
thorax -5.538868007891365 1.5962806644228722 -1.1985238668199851
lowerneck -15.283062685257098 -3.258897315750092 -1.206457630078563
upperneck 22.81757578797738 -4.405941262820149 0.1653850228168389
head 9.919496736663445 -2.100461430588537 -0.39309780153033425
lclavicle -1.3756230376796628e-15 -1.8336793056253844e-15
lhumerus -36.12973748002996 12.615614876006422 80.20739527243049
lradius 13.682417883626004
lwrist -2.136261323022882
lhand -25.98279309552779 23.331010987832954
lfingers 7.125019999999999
lthumb 0.28814134369191624 53.25305840023059
rclavicle -1.3853156685880626e-15 -1.8417339138273075e-15
rhumerus -25.91796981490036 -20.222138193504893 -77.4003533511074
rradius 28.957372179152635
rwrist 0.9023063123583057
rhand -18.51468644153598 22.875687036589262
rfingers 7.125019999999999
rthumb 7.4897372150989785 -7.1678306440397055
32
root 1.0365023852183408 17.967412895932043 -5.610851127366818 -2.857037145024224 -4.513631038145184 -1.5313712898659135
lfemur -17.17229328552635 -2.5424781901541316 -21.43026967350178
ltibia 26.865528456576573
lfoot -5.895733596778723 -4.858284626888879
ltoes 2.0950145204990087
rfemur -3.4707745197631255 3.1153189221687754 23.183216028384
rtibia 61.45801284149542
rfoot 10.721438279504454 -1.5745567146674064
rtoes 9.619806239277136
lowerback 9.766023137495432 2.5745341664000603 2.051257947302963
upperback 0.06028341668889209 3.4924302710774295 0.35025487173396685
thorax -5.7229282826921475 1.6420515299198954 -0.9899002572237678
lowerneck -15.384457314140633 -3.1356022346222048 -1.2652524242275125
upperneck 23.05987444717383 -4.226887620386547 0.2397737534469167
head 10.068920319962617 -2.0258952916411777 -0.35778229018372265
lclavicle -1.3802198552190361e-15 -1.836760556678846e-15
lhumerus -35.09564755447326 11.333266252431436 80.73136792643857
lradius 14.988870568487533
lwrist -0.4244098910848981
lhand -26.383113729203497 23.45603982863444
lfingers 7.125019999999999
lthumb -0.0821906030672035 53.159664344708176
rclavicle -1.3846714844790802e-15 -1.8411355827635775e-15
rhumerus -26.907062617039447 -21.88076016120339 -77.126437186837
rradius 27.45082492806561
rwrist 2.713000058879358
rhand -18.325919996519644 22.45107113949011
rfingers 7.125019999999999
rthumb 7.696461305470142 -7.778960650979895
